<?xml version="1.0" encoding="UTF-8" standalone="no"?>
<!-- Created with Inkscape (http://www.inkscape.org/) -->

<svg
   version="1.1"
   id="svg48"
   width="479.21313"
   height="415.84668"
   viewBox="0 0 479.21314 415.84668"
   sodipodi:docname="iStock-2160960991.eps"
   xmlns:inkscape="http://www.inkscape.org/namespaces/inkscape"
   xmlns:sodipodi="http://sodipodi.sourceforge.net/DTD/sodipodi-0.dtd"
   xmlns="http://www.w3.org/2000/svg"
   xmlns:svg="http://www.w3.org/2000/svg">
  <defs
     id="defs52" />
  <sodipodi:namedview
     id="namedview50"
     pagecolor="#ffffff"
     bordercolor="#000000"
     borderopacity="0.25"
     inkscape:showpageshadow="2"
     inkscape:pageopacity="0.0"
     inkscape:pagecheckerboard="0"
     inkscape:deskcolor="#d1d1d1"
     showgrid="false" />
  <g
     id="g56"
     inkscape:groupmode="layer"
     inkscape:label="Page 1"
     transform="matrix(1.3333333,0,0,-1.3333333,-1650.741,3078.9799)">
    <path
       d="m 1590.07,2189.04 -57.25,41.31 v 54.16 c 0,4.75 -3.85,8.6 -8.6,8.6 h -26.5 c -4.76,0 -8.61,-3.85 -8.61,-8.6 v -22.61 l -60.91,43.96 c -6.23,4.5 -14.64,4.5 -20.88,0 l -161.87,-116.82 c -9.36,-6.76 -9.93,-20.5 -1.16,-28.01 6.25,-5.35 15.36,-5.73 22.03,-0.91 l 151.44,109.3 151.43,-109.3 c 6.68,-4.82 15.79,-4.44 22.05,0.91 8.76,7.51 8.19,21.25 -1.17,28.01"
       style="fill:#14a0de;fill-opacity:1;fill-rule:nonzero;stroke:none;stroke-width:0.1"
       id="path272" />
    <path
       d="m 1437.94,2128.63 -30.81,-30.81 -11.28,11.28 c -4.42,4.43 -11.59,4.43 -16.01,0 -4.42,-4.41 -4.42,-11.59 0,-16.01 l 19.29,-19.29 c 2.2,-2.21 5.11,-3.31 8,-3.31 2.9,0 5.8,1.1 8.01,3.31 l 38.81,38.82 c 4.43,4.42 4.43,11.6 0,16.01 -4.42,4.43 -11.59,4.43 -16.01,0"
       style="fill:#203a72;fill-opacity:1;fill-rule:nonzero;stroke:none;stroke-width:0.1"
       id="path274" />
    <path
       d="m 1417.76,2034.28 c -37.92,0 -68.65,30.73 -68.65,68.65 0,37.92 30.73,68.65 68.65,68.65 37.91,0 68.66,-30.73 68.66,-68.65 0,-37.92 -30.75,-68.65 -68.66,-68.65 z m 0.02,208.18 -129.11,-93.17 v -128.95 c 0,-12.73 10.33,-22.99 23.06,-22.99 h 212.02 c 12.72,0 23.14,10.41 23.14,23.14 v 128.8 l -129.11,93.17"
       style="fill:#203a72;fill-opacity:1;fill-rule:nonzero;stroke:none;stroke-width:0.1"
       id="path276" />
  </g>
</svg>
