<?xml version="1.0" encoding="UTF-8" standalone="no"?>
<!-- Created with Inkscape (http://www.inkscape.org/) -->

<svg
   version="1.1"
   id="svg48"
   width="522.12207"
   height="582.81335"
   viewBox="0 0 522.12207 582.81335"
   sodipodi:docname="iStock-2160960991.eps"
   xmlns:inkscape="http://www.inkscape.org/namespaces/inkscape"
   xmlns:sodipodi="http://sodipodi.sourceforge.net/DTD/sodipodi-0.dtd"
   xmlns="http://www.w3.org/2000/svg"
   xmlns:svg="http://www.w3.org/2000/svg">
  <defs
     id="defs52" />
  <sodipodi:namedview
     id="namedview50"
     pagecolor="#ffffff"
     bordercolor="#000000"
     borderopacity="0.25"
     inkscape:showpageshadow="2"
     inkscape:pageopacity="0.0"
     inkscape:pagecheckerboard="0"
     inkscape:deskcolor="#d1d1d1"
     showgrid="false" />
  <g
     id="g56"
     inkscape:groupmode="layer"
     inkscape:label="Page 1"
     transform="matrix(1.3333333,0,0,-1.3333333,-4644.6133,1521.0133)">
    <path
       d="m 3586.45,703.65 v 39.58 h 25.01 v -6.11 h -17.82 v -10.11 h 15.82 v -6.12 h -15.82 v -17.24 h -7.19"
       style="fill:#203a72;fill-opacity:1;fill-rule:nonzero;stroke:none;stroke-width:0.1"
       id="path248"
       inkscape:export-filename="../git/code/public/atlas/pages/assets/family.svg"
       inkscape:export-xdpi="96"
       inkscape:export-ydpi="96" />
    <path
       d="m 3629.65,735.58 c -0.87,-2.02 -1.87,-4.47 -3,-7.37 -1.12,-2.89 -2.29,-6.04 -3.51,-9.42 h 13.02 c -1.21,3.38 -2.39,6.54 -3.54,9.48 -1.14,2.92 -2.13,5.37 -2.97,7.31 z m 11.68,-31.93 c -0.53,1.57 -1.08,3.1 -1.66,4.63 -0.57,1.52 -1.12,3.08 -1.66,4.68 h -16.72 c -0.53,-1.6 -1.07,-3.17 -1.63,-4.71 -0.55,-1.55 -1.1,-3.07 -1.63,-4.6 h -7.48 c 1.48,4.23 2.89,8.13 4.22,11.7 1.33,3.59 2.63,6.98 3.91,10.18 1.27,3.2 2.54,6.23 3.79,9.14 1.26,2.88 2.55,5.75 3.88,8.56 h 6.87 c 1.34,-2.81 2.63,-5.68 3.89,-8.56 1.25,-2.91 2.52,-5.94 3.8,-9.14 1.27,-3.2 2.59,-6.59 3.94,-10.18 1.35,-3.57 2.77,-7.47 4.25,-11.7 h -7.77"
       style="fill:#203a72;fill-opacity:1;fill-rule:nonzero;stroke:none;stroke-width:0.1"
       id="path250" />
    <path
       d="m 3662.72,743.23 c 0.84,-1.45 1.77,-3.22 2.8,-5.3 1.03,-2.1 2.07,-4.31 3.14,-6.61 1.07,-2.31 2.12,-4.65 3.17,-7.02 1.05,-2.38 2.01,-4.58 2.89,-6.6 0.87,2.02 1.82,4.22 2.85,6.6 1.03,2.37 2.08,4.71 3.14,7.02 1.07,2.3 2.11,4.51 3.14,6.61 1.03,2.08 1.97,3.85 2.8,5.3 h 6.49 c 0.35,-2.89 0.68,-5.96 0.99,-9.22 0.31,-3.26 0.59,-6.6 0.84,-9.99 0.25,-3.41 0.48,-6.84 0.7,-10.29 0.21,-3.45 0.4,-6.8 0.55,-10.08 h -7.08 c -0.16,4.6 -0.34,9.35 -0.55,14.22 -0.22,4.87 -0.54,9.59 -0.97,14.17 -0.42,-0.88 -0.91,-1.92 -1.48,-3.15 -0.57,-1.22 -1.18,-2.54 -1.83,-3.97 -0.65,-1.42 -1.3,-2.9 -1.97,-4.42 -0.66,-1.53 -1.31,-3 -1.94,-4.43 -0.63,-1.42 -1.21,-2.76 -1.74,-4 -0.54,-1.23 -0.99,-2.29 -1.38,-3.16 h -5.36 c -0.38,0.87 -0.84,1.93 -1.38,3.2 -0.53,1.25 -1.11,2.59 -1.74,4.02 -0.62,1.43 -1.27,2.91 -1.94,4.43 -0.67,1.52 -1.32,2.99 -1.97,4.4 -0.64,1.4 -1.26,2.73 -1.83,3.97 -0.57,1.24 -1.06,2.26 -1.48,3.11 -0.43,-4.58 -0.75,-9.3 -0.96,-14.17 -0.21,-4.87 -0.4,-9.62 -0.56,-14.22 h -7.08 c 0.16,3.28 0.34,6.66 0.56,10.17 0.21,3.5 0.44,6.98 0.69,10.42 0.25,3.45 0.54,6.78 0.85,10.03 0.31,3.23 0.64,6.22 0.98,8.96 h 6.66"
       style="fill:#203a72;fill-opacity:1;fill-rule:nonzero;stroke:none;stroke-width:0.1"
       id="path252" />
    <path
       d="m 3704.56,743.23 h 7.19 v -39.58 h -7.19 v 39.58"
       style="fill:#203a72;fill-opacity:1;fill-rule:nonzero;stroke:none;stroke-width:0.1"
       id="path254" />
    <path
       d="m 3746.25,709.88 v -6.23 h -25.01 v 39.58 h 7.19 v -33.35 h 17.82"
       style="fill:#203a72;fill-opacity:1;fill-rule:nonzero;stroke:none;stroke-width:0.1"
       id="path256" />
    <path
       d="m 3759.16,725.69 c 1.71,2.86 3.39,5.75 5.03,8.69 1.63,2.93 3.12,5.88 4.45,8.85 h 8 c -2.14,-4.04 -4.35,-8.04 -6.66,-12.02 -2.3,-3.98 -4.77,-7.99 -7.39,-12.03 v -15.53 h -7.2 v 15.42 c -2.63,4.08 -5.1,8.11 -7.42,12.11 -2.33,3.99 -4.56,8.01 -6.69,12.05 h 8.46 c 1.33,-2.97 2.79,-5.92 4.39,-8.85 1.6,-2.94 3.28,-5.83 5.03,-8.69"
       style="fill:#203a72;fill-opacity:1;fill-rule:nonzero;stroke:none;stroke-width:0.1"
       id="path258" />
    <path
       d="m 3869.23,1024.47 -78.46,48.92 v 26.21 c 0,6.83 -5.52,12.36 -12.34,12.36 -6.83,0 -12.35,-5.53 -12.35,-12.36 v -10.8 l -80.29,50.07 c -4,2.52 -9.07,2.52 -13.07,0 l -183.45,-114.4 c -5.79,-3.6 -7.54,-11.21 -3.94,-17 3.61,-5.79 11.22,-7.6 17.02,-3.95 l 176.9,110.32 176.92,-110.32 c 2.03,-1.27 4.29,-1.88 6.51,-1.88 4.13,0 8.16,2.07 10.5,5.83 3.61,5.79 1.84,13.4 -3.95,17"
       style="fill:#14a0de;fill-opacity:1;fill-rule:nonzero;stroke:none;stroke-width:0.1"
       id="path596" />
    <path
       d="m 3629.99,984.29 c 12.67,0 22.94,10.29 22.94,22.95 0,12.66 -10.27,22.93 -22.94,22.93 -12.66,0 -22.93,-10.27 -22.93,-22.93 0,-12.66 10.27,-22.95 22.93,-22.95"
       style="fill:#203a72;fill-opacity:1;fill-rule:nonzero;stroke:none;stroke-width:0.1"
       id="path598" />
    <path
       d="m 3728.52,984.29 c 12.67,0 22.93,10.29 22.93,22.95 0,12.66 -10.26,22.93 -22.93,22.93 -12.67,0 -22.94,-10.27 -22.94,-22.93 0,-12.66 10.27,-22.95 22.94,-22.95"
       style="fill:#203a72;fill-opacity:1;fill-rule:nonzero;stroke:none;stroke-width:0.1"
       id="path600" />
    <path
       d="m 3760.99,965.74 c -4.13,6.86 -11.56,11.05 -19.56,11.05 h -25.81 c -8.01,0 -15.43,-4.19 -19.57,-11.04 l -16.8,-27.84 -16.8,27.85 c -4.13,6.85 -11.54,11.03 -19.53,11.03 h -25.86 c -7.99,0 -15.4,-4.18 -19.53,-11.03 l -24.14,-40.02 c -2.2,-3.65 -1.76,-8.47 1.4,-11.32 4.26,-3.81 10.66,-2.69 13.46,1.94 l 16.5,27.37 V 824.4 c 0,-4.89 3.32,-9.32 8.11,-10.3 6.6,-1.33 12.39,3.69 12.39,10.04 v 69.71 h 9.49 V 824.4 c 0,-4.89 3.31,-9.32 8.11,-10.3 6.6,-1.33 12.38,3.69 12.38,10.04 v 119.59 l 16.41,-27.2 c 0.97,-1.6 2.37,-2.96 4.1,-3.69 4.26,-1.78 8.84,-0.09 11.03,3.52 l 16.51,27.37 v -23.71 h -0.01 l -17.21,-33.47 c -2.84,-5.52 1.17,-12.1 7.38,-12.1 h 9.84 V 824.4 c 0,-4.89 3.31,-9.32 8.11,-10.3 6.59,-1.33 12.38,3.69 12.38,10.04 v 50.31 h 9.49 V 824.4 c 0,-4.89 3.33,-9.32 8.12,-10.3 6.59,-1.33 12.38,3.69 12.38,10.04 v 50.31 h 9.84 c 6.21,0 10.21,6.58 7.38,12.1 l -17.2,33.47 h -0.02 v 23.71 l 16.5,-27.37 c 1.65,-2.72 4.55,-4.23 7.53,-4.23 1.73,0 3.47,0.51 5.03,1.58 3.86,2.69 4.67,8.12 2.23,12.16 l -24.06,39.87"
       style="fill:#203a72;fill-opacity:1;fill-rule:nonzero;stroke:none;stroke-width:0.1"
       id="path602" />
    <path
       d="m 3854.97,923.45 c -3.71,6.14 -10.37,9.9 -17.55,9.9 h -14.71 c -7.18,0 -13.83,-3.75 -17.54,-9.9 l -16.75,-27.74 c -1.83,-3.05 -0.85,-7.02 2.19,-8.85 1.05,-0.64 2.19,-0.93 3.33,-0.93 2.18,0 4.3,1.11 5.51,3.11 l 12.11,20.06 v -87.7 c 0,-4.14 3.36,-7.5 7.51,-7.5 4.15,0 7.51,3.36 7.51,7.5 v 51.13 h 6.97 V 821.4 c 0,-4.14 3.36,-7.5 7.51,-7.5 4.16,0 7.52,3.36 7.52,7.5 v 87.7 l 12.1,-20.06 c 1.84,-3.03 5.79,-4.02 8.84,-2.18 3.05,1.83 4.03,5.8 2.19,8.85 l -16.74,27.74"
       style="fill:#203a72;fill-opacity:1;fill-rule:nonzero;stroke:none;stroke-width:0.1"
       id="path604" />
    <path
       d="m 3830.06,938.86 c 10.37,0 18.76,8.41 18.76,18.76 0,10.36 -8.39,18.75 -18.76,18.75 -10.35,0 -18.75,-8.39 -18.75,-18.75 0,-10.35 8.4,-18.76 18.75,-18.76"
       style="fill:#203a72;fill-opacity:1;fill-rule:nonzero;stroke:none;stroke-width:0.1"
       id="path606" />
    <path
       d="m 3528.44,938.86 c 10.36,0 18.76,8.41 18.76,18.76 0,10.36 -8.4,18.75 -18.76,18.75 -10.36,0 -18.75,-8.39 -18.75,-18.75 0,-10.35 8.39,-18.76 18.75,-18.76"
       style="fill:#203a72;fill-opacity:1;fill-rule:nonzero;stroke:none;stroke-width:0.1"
       id="path608" />
    <path
       d="m 3553.34,923.45 c -3.71,6.14 -10.36,9.9 -17.55,9.9 h -14.7 c -7.18,0 -13.84,-3.76 -17.55,-9.9 l -16.74,-27.74 c -1.84,-3.05 -0.86,-7.02 2.19,-8.85 1.04,-0.64 2.19,-0.93 3.32,-0.93 2.18,0 4.31,1.11 5.52,3.11 l 12.1,20.06 v -17.39 0 l -14.03,-24.24 c -2.35,-4.08 0.58,-9.17 5.29,-9.17 h 8.74 v -36.9 c 0,-4.14 3.37,-7.5 7.52,-7.5 4.15,0 7.51,3.36 7.51,7.5 v 36.9 h 6.97 v -36.9 c 0,-4.14 3.36,-7.5 7.51,-7.5 4.15,0 7.51,3.36 7.51,7.5 v 36.9 h 8.75 c 4.7,0 7.64,5.09 5.29,9.17 l -14.03,24.24 h -0.01 v 17.39 l 12.1,-20.06 c 1.85,-3.03 5.8,-4.02 8.85,-2.18 3.04,1.83 4.02,5.8 2.19,8.85 l -16.75,27.74"
       style="fill:#203a72;fill-opacity:1;fill-rule:nonzero;stroke:none;stroke-width:0.1"
       id="path610" />
  </g>
</svg>
