<?xml version="1.0" encoding="UTF-8" standalone="no"?>
<!-- Created with Inkscape (http://www.inkscape.org/) -->

<svg
   version="1.1"
   id="svg48"
   width="530.85449"
   height="419.15649"
   viewBox="0 0 530.85449 419.15649"
   sodipodi:docname="iStock-2160960991.eps"
   xmlns:inkscape="http://www.inkscape.org/namespaces/inkscape"
   xmlns:sodipodi="http://sodipodi.sourceforge.net/DTD/sodipodi-0.dtd"
   xmlns="http://www.w3.org/2000/svg"
   xmlns:svg="http://www.w3.org/2000/svg">
  <defs
     id="defs52" />
  <sodipodi:namedview
     id="namedview50"
     pagecolor="#ffffff"
     bordercolor="#000000"
     borderopacity="0.25"
     inkscape:showpageshadow="2"
     inkscape:pageopacity="0.0"
     inkscape:pagecheckerboard="0"
     inkscape:deskcolor="#d1d1d1"
     showgrid="false" />
  <g
     id="g56"
     inkscape:groupmode="layer"
     inkscape:label="Page 1"
     transform="matrix(1.3333333,0,0,-1.3333333,-5495.1655,546.50708)">
    <path
       d="m 4513.1944,307.26288 -48.83,35.3 v 46.13 c 0,4.06 -3.32,7.38 -7.38,7.38 h -22.64 c -4.06,0 -7.25,-3.32 -7.25,-7.38 v -19.19 l -52.04,37.52 c -5.29,3.81 -12.55,3.81 -17.84,0 l -80.57,-58.18 c 5.05,-5.42 8.12,-12.55 8.12,-20.67 0,-2.95 -0.49,-6.64 -2.09,-12.55 l 83.52,60.28 129.17,-93.37 c 5.78,-4.06 13.53,-3.69 18.82,0.86 7.5,6.4 7.01,18.09 -0.99,23.87"
       style="fill:#203a72;fill-opacity:1;fill-rule:nonzero;stroke:none;stroke-width:0.1"
       id="path378-6" />
    <path
       d="m 4272.3444,285.11288 c 26.44,-23.98 59.41,-65.44 59.41,-107.63 0,-10.58 -1.35,-20.54 -3.93,-29.77 h 128.79 c 10.82,0 19.68,8.86 19.68,19.68 v 105.92 l -110.1,79.59 -93.85,-67.79"
       style="fill:#203a72;fill-opacity:1;fill-rule:nonzero;stroke:none;stroke-width:0.1"
       id="path380-6" />
    <path
       d="m 4258.5844,207.29288 -69.21,-69.23 c -3.73,-3.71 -10.18,-3.71 -13.9,0 -1.85,1.86 -2.87,4.32 -2.87,6.94 0,2.62 1.02,5.09 2.88,6.94 l 69.22,69.23 v 0 c 3.83,3.83 10.05,3.83 13.88,0 1.86,-1.85 2.88,-4.32 2.88,-6.94 0,-2.62 -1.02,-5.09 -2.88,-6.94 z m -12.54,-72.01 c -8.48,0 -15.37,6.89 -15.37,15.37 0,8.48 6.89,15.38 15.37,15.38 8.47,0 15.37,-6.9 15.37,-15.38 0,-8.48 -6.9,-15.37 -15.37,-15.37 z m -58.02,88.76 c 8.48,0 15.38,-6.9 15.38,-15.38 0,-8.47 -6.9,-15.37 -15.38,-15.37 -8.47,0 -15.37,6.9 -15.37,15.37 0,8.48 6.9,15.38 15.37,15.38 z m 59.72,57.06 c 8.51,17.62 17.9,38.91 17.9,47.13 0,10.4 -13.04,15.85 -20.97,4.78 -10.33,-14.43 -14.76,6.55 -26.71,6.51 -11.78,-0.02 -17.96,-19.41 -27.17,-6.41 -8.35,11.85 -22.59,4.68 -22.59,-4.56 0,-11.23 8.98,-31.51 17.35,-48.01 -28.88,-22.62 -64.18,-64.78 -64.18,-103.06 0,-55.62 42.83,-81.969998 95.66,-81.969998 52.84,0 95.66,26.349998 95.66,81.969998 0,38.63 -35.92,81.18 -64.95,103.62"
       style="fill:#14a0de;fill-opacity:1;fill-rule:nonzero;stroke:none;stroke-width:0.1"
       id="path382-6" />
    <ellipse
       style="fill:#ffffff;fill-opacity:1;stroke-width:0.797666"
       id="path6057-6"
       cx="4216.9453"
       cy="-186.37982"
       transform="scale(1,-1)"
       rx="68.117119"
       ry="65.2789" />
    <path
       d="m 4213.1331,198.04597 h 8.01 c 16.58,0 29.94,-14.3 28.29,-31.19 -1.26,-12.73 -11.31,-22.47 -23.57,-24.91 v -11.39 c 0,-1.26 -1.02,-2.28 -2.28,-2.28 h -12.81 c -1.26,0 -2.36,1.02 -2.36,2.28 v 11.23 c -12.56,2.12 -22.38,12.5 -23.49,25.38 -0.15,1.34 1.03,2.52 2.36,2.52 h 12.81 c 1.1,0 2.12,-0.71 2.27,-1.81 0.87,-5.19 5.35,-9.12 10.77,-9.12 h 7.39 c 5.5,0 10.52,3.7 11.39,9.04 1.18,6.84 -4.09,12.81 -10.77,12.81 h -6.67 c -14.85,0 -28.13,10.76 -29.55,25.53 -1.49,15.25 9.19,28.37 23.49,30.73 v 11.15 c 0,1.34 1.1,2.36 2.36,2.36 h 12.81 c 1.26,0 2.28,-1.02 2.28,-2.36 v -11.15 c 12.65,-2.12 22.47,-12.5 23.57,-25.46 0.08,-1.33 -1.02,-2.44 -2.35,-2.44 h -12.9 c -1.01,0 -2.03,0.71 -2.19,1.73 -0.87,5.19 -5.42,9.2 -10.85,9.2 h -7.38 c -5.42,0 -10.45,-3.69 -11.4,-9.12 -1.1,-6.84 4.17,-12.73 10.77,-12.73 z m 4.05,75.43 c -46.48,0 -84.15,-37.68 -84.15,-84.15 0,-46.47 37.67,-84.15 84.15,-84.15 46.47,0 84.14,37.68 84.14,84.15 0,46.47 -37.67,84.15 -84.14,84.15"
       style="fill:#14a0de;fill-opacity:1;fill-rule:nonzero;stroke:none;stroke-width:0.1"
       id="path394-1-7" />
  </g>
</svg>
