<?xml version="1.0" encoding="UTF-8" standalone="no"?>
<!-- Created with Inkscape (http://www.inkscape.org/) -->

<svg
   version="1.1"
   id="svg48"
   width="504.66907"
   height="565.75"
   viewBox="0 0 504.66907 565.75"
   sodipodi:docname="iStock-2160960991.eps"
   xmlns:inkscape="http://www.inkscape.org/namespaces/inkscape"
   xmlns:sodipodi="http://sodipodi.sourceforge.net/DTD/sodipodi-0.dtd"
   xmlns="http://www.w3.org/2000/svg"
   xmlns:svg="http://www.w3.org/2000/svg">
  <defs
     id="defs52" />
  <sodipodi:namedview
     id="namedview50"
     pagecolor="#ffffff"
     bordercolor="#000000"
     borderopacity="0.25"
     inkscape:showpageshadow="2"
     inkscape:pageopacity="0.0"
     inkscape:pagecheckerboard="0"
     inkscape:deskcolor="#d1d1d1"
     showgrid="false" />
  <g
     id="g56"
     inkscape:groupmode="layer"
     inkscape:label="Page 1"
     transform="matrix(1.3333333,0,0,-1.3333333,-1638.0133,1502.8167)">
    <path
       d="m 1370.9,709.88 v -6.23 h -25.02 v 39.58 h 7.2 v -33.35 h 17.82"
       style="fill:#203a72;fill-opacity:1;fill-rule:nonzero;stroke:none;stroke-width:0.1"
       id="path200" />
    <path
       d="m 1379.98,723.47 c 0,-2.17 0.26,-4.14 0.8,-5.91 0.53,-1.77 1.3,-3.27 2.31,-4.51 1.01,-1.24 2.24,-2.21 3.68,-2.89 1.45,-0.68 3.09,-1.03 4.92,-1.03 1.78,0 3.4,0.35 4.85,1.03 1.45,0.68 2.68,1.65 3.68,2.89 1.01,1.24 1.78,2.74 2.32,4.51 0.53,1.77 0.8,3.74 0.8,5.91 0,2.17 -0.27,4.14 -0.8,5.92 -0.54,1.77 -1.31,3.27 -2.32,4.51 -1,1.22 -2.23,2.19 -3.68,2.87 -1.45,0.7 -3.07,1.03 -4.85,1.03 -1.83,0 -3.47,-0.33 -4.92,-1.03 -1.44,-0.68 -2.67,-1.65 -3.68,-2.91 -1.01,-1.25 -1.78,-2.75 -2.31,-4.51 -0.54,-1.75 -0.8,-3.71 -0.8,-5.88 z m 30.9,0 c 0,-3.39 -0.51,-6.38 -1.52,-8.97 -1.01,-2.59 -2.38,-4.75 -4.11,-6.48 -1.73,-1.74 -3.76,-3.04 -6.08,-3.91 -2.32,-0.88 -4.8,-1.31 -7.43,-1.31 -2.63,0 -5.11,0.43 -7.45,1.31 -2.34,0.87 -4.38,2.17 -6.11,3.91 -1.74,1.73 -3.12,3.89 -4.14,6.48 -1.03,2.59 -1.54,5.58 -1.54,8.97 0,3.39 0.51,6.37 1.54,8.94 1.02,2.57 2.43,4.73 4.19,6.48 1.78,1.75 3.82,3.06 6.15,3.94 2.32,0.87 4.77,1.32 7.36,1.32 2.59,0 5.05,-0.45 7.37,-1.32 2.32,-0.88 4.35,-2.19 6.08,-3.94 1.74,-1.75 3.12,-3.91 4.14,-6.48 1.03,-2.57 1.55,-5.55 1.55,-8.94"
       style="fill:#203a72;fill-opacity:1;fill-rule:nonzero;stroke:none;stroke-width:0.1"
       id="path202" />
    <path
       d="m 1432.44,735.58 c -0.88,-2.02 -1.88,-4.47 -3,-7.37 -1.12,-2.89 -2.29,-6.04 -3.51,-9.42 h 13.02 c -1.22,3.38 -2.4,6.54 -3.54,9.48 -1.14,2.92 -2.13,5.37 -2.97,7.31 z m 11.68,-31.93 c -0.54,1.57 -1.09,3.1 -1.66,4.63 -0.57,1.52 -1.13,3.08 -1.66,4.68 h -16.72 c -0.54,-1.6 -1.08,-3.17 -1.63,-4.71 -0.55,-1.55 -1.1,-3.07 -1.63,-4.6 h -7.49 c 1.48,4.23 2.89,8.13 4.22,11.7 1.34,3.59 2.64,6.98 3.91,10.18 1.28,3.2 2.54,6.23 3.8,9.14 1.26,2.88 2.55,5.75 3.88,8.56 h 6.87 c 1.33,-2.81 2.63,-5.68 3.88,-8.56 1.26,-2.91 2.53,-5.94 3.8,-9.14 1.28,-3.2 2.59,-6.59 3.94,-10.18 1.35,-3.57 2.77,-7.47 4.26,-11.7 h -7.77"
       style="fill:#203a72;fill-opacity:1;fill-rule:nonzero;stroke:none;stroke-width:0.1"
       id="path204" />
    <path
       d="m 1483.53,703.65 c -1.3,2.17 -2.74,4.5 -4.34,6.99 -1.6,2.5 -3.26,5.01 -4.97,7.54 -1.72,2.54 -3.46,5 -5.23,7.38 -1.77,2.37 -3.45,4.52 -5.05,6.42 v -28.33 h -7.08 v 39.58 h 5.88 c 1.52,-1.6 3.16,-3.5 4.91,-5.68 1.75,-2.19 3.51,-4.47 5.28,-6.83 1.77,-2.36 3.49,-4.73 5.14,-7.11 1.66,-2.38 3.14,-4.6 4.43,-6.66 v 26.28 h 7.14 v -39.58 h -6.11"
       style="fill:#203a72;fill-opacity:1;fill-rule:nonzero;stroke:none;stroke-width:0.1"
       id="path206" />
    <path
       d="m 1600.71,1024.63 -48.81,35.23 v 46.17 c 0,4.05 -3.29,7.34 -7.34,7.34 h -22.59 c -4.05,0 -7.34,-3.29 -7.34,-7.34 v -19.28 l -51.93,37.49 c -5.31,3.83 -12.48,3.83 -17.8,0 l -138,-99.61 c -7.98,-5.76 -8.47,-17.46 -1,-23.87 5.33,-4.57 13.1,-4.89 18.79,-0.78 l 129.11,93.19 129.11,-93.19 c 5.69,-4.11 13.46,-3.79 18.79,0.78 7.47,6.41 6.99,18.11 -0.99,23.87"
       style="fill:#203a72;fill-opacity:1;fill-rule:nonzero;stroke:none;stroke-width:0.1"
       id="path390" />
    <path
       d="m 1525.98,961.96 -66.48,-66.48 c -3.56,-3.57 -9.71,-3.57 -13.27,0 -1.84,1.84 -2.83,4.18 -2.83,6.76 0,2.45 0.99,4.79 2.83,6.63 l 66.36,66.36 c 1.84,1.84 4.3,2.7 6.76,2.7 2.33,0 4.79,-0.86 6.63,-2.7 1.72,-1.72 2.7,-4.18 2.7,-6.64 0,-2.46 -0.98,-4.91 -2.7,-6.63 z m -12.04,-69.06 c -8.11,0 -14.75,6.63 -14.75,14.74 0,8.11 6.64,14.75 14.75,14.75 8.11,0 14.74,-6.64 14.74,-14.75 0,-8.11 -6.63,-14.74 -14.74,-14.74 z m -55.67,85.15 c 8.11,0 14.75,-6.63 14.75,-14.74 0,-8.23 -6.64,-14.75 -14.75,-14.75 -8.11,0 -14.74,6.52 -14.74,14.75 0,8.11 6.63,14.74 14.74,14.74 z m -4.42,92.17 -109.24,-78.9 c 41.29,-13.51 71.27,-52.47 71.27,-98.18 0,-9.7 -1.35,-19.04 -3.81,-27.89 h 132.1 c 10.81,0 19.66,8.85 19.66,19.66 v 105.8 l -109.98,79.51"
       style="fill:#203a72;fill-opacity:1;fill-rule:nonzero;stroke:none;stroke-width:0.1"
       id="path392" />
    <path
       d="m 1308.61,901.85 h 8.01 c 16.58,0 29.94,-14.3 28.29,-31.19 -1.26,-12.73 -11.31,-22.47 -23.57,-24.91 v -11.39 c 0,-1.26 -1.02,-2.28 -2.28,-2.28 h -12.81 c -1.26,0 -2.36,1.02 -2.36,2.28 v 11.23 c -12.56,2.12 -22.38,12.5 -23.49,25.38 -0.15,1.34 1.03,2.52 2.36,2.52 h 12.81 c 1.1,0 2.12,-0.71 2.27,-1.81 0.87,-5.19 5.35,-9.12 10.77,-9.12 h 7.39 c 5.5,0 10.52,3.7 11.39,9.04 1.18,6.84 -4.09,12.81 -10.77,12.81 h -6.67 c -14.85,0 -28.13,10.76 -29.55,25.53 -1.49,15.25 9.19,28.37 23.49,30.73 v 11.15 c 0,1.34 1.1,2.36 2.36,2.36 h 12.81 c 1.26,0 2.28,-1.02 2.28,-2.36 v -11.15 c 12.65,-2.12 22.47,-12.5 23.57,-25.46 0.08,-1.33 -1.02,-2.44 -2.35,-2.44 h -12.9 c -1.01,0 -2.03,0.71 -2.19,1.73 -0.87,5.19 -5.42,9.2 -10.85,9.2 h -7.38 c -5.42,0 -10.45,-3.69 -11.4,-9.12 -1.1,-6.84 4.17,-12.73 10.77,-12.73 z m 4.05,75.43 c -46.48,0 -84.15,-37.68 -84.15,-84.15 0,-46.47 37.67,-84.15 84.15,-84.15 46.47,0 84.14,37.68 84.14,84.15 0,46.47 -37.67,84.15 -84.14,84.15"
       style="fill:#14a0de;fill-opacity:1;fill-rule:nonzero;stroke:none;stroke-width:0.1"
       id="path394" />
  </g>
</svg>
