<?xml version="1.0" encoding="UTF-8" standalone="no"?>
<!-- Created with Inkscape (http://www.inkscape.org/) -->

<svg
   version="1.1"
   id="svg48"
   width="467.17163"
   height="564.64001"
   viewBox="0 0 467.17163 564.64001"
   sodipodi:docname="iStock-2160960991.eps"
   xmlns:inkscape="http://www.inkscape.org/namespaces/inkscape"
   xmlns:sodipodi="http://sodipodi.sourceforge.net/DTD/sodipodi-0.dtd"
   xmlns="http://www.w3.org/2000/svg"
   xmlns:svg="http://www.w3.org/2000/svg">
  <defs
     id="defs52" />
  <sodipodi:namedview
     id="namedview50"
     pagecolor="#ffffff"
     bordercolor="#000000"
     borderopacity="0.25"
     inkscape:showpageshadow="2"
     inkscape:pageopacity="0.0"
     inkscape:pagecheckerboard="0"
     inkscape:deskcolor="#d1d1d1"
     showgrid="false" />
  <g
     id="g56"
     inkscape:groupmode="layer"
     inkscape:label="Page 1"
     transform="matrix(1.3333333,0,0,-1.3333333,-3918.2444,1501.7067)">
    <path
       d="m 3071.53,709.88 v -6.23 h -25.02 v 39.58 h 7.19 v -33.35 h 17.83"
       style="fill:#203a72;fill-opacity:1;fill-rule:nonzero;stroke:none;stroke-width:0.1"
       id="path240"
       inkscape:export-filename="../git/code/public/atlas/pages/assets/love.svg"
       inkscape:export-xdpi="96"
       inkscape:export-ydpi="96" />
    <path
       d="m 3080.6,723.47 c 0,-2.17 0.27,-4.14 0.8,-5.91 0.54,-1.77 1.31,-3.27 2.32,-4.51 1.01,-1.24 2.24,-2.21 3.68,-2.89 1.45,-0.68 3.09,-1.03 4.91,-1.03 1.79,0 3.41,0.35 4.86,1.03 1.44,0.68 2.67,1.65 3.68,2.89 1.01,1.24 1.78,2.74 2.32,4.51 0.53,1.77 0.8,3.74 0.8,5.91 0,2.17 -0.27,4.14 -0.8,5.92 -0.54,1.77 -1.31,3.27 -2.32,4.51 -1.01,1.22 -2.24,2.19 -3.68,2.87 -1.45,0.7 -3.07,1.03 -4.86,1.03 -1.82,0 -3.46,-0.33 -4.91,-1.03 -1.44,-0.68 -2.67,-1.65 -3.68,-2.91 -1.01,-1.25 -1.78,-2.75 -2.32,-4.51 -0.53,-1.75 -0.8,-3.71 -0.8,-5.88 z m 30.91,0 c 0,-3.39 -0.51,-6.38 -1.52,-8.97 -1.01,-2.59 -2.38,-4.75 -4.11,-6.48 -1.73,-1.74 -3.76,-3.04 -6.08,-3.91 -2.33,-0.88 -4.8,-1.31 -7.43,-1.31 -2.63,0 -5.11,0.43 -7.45,1.31 -2.34,0.87 -4.38,2.17 -6.11,3.91 -1.74,1.73 -3.12,3.89 -4.15,6.48 -1.02,2.59 -1.54,5.58 -1.54,8.97 0,3.39 0.52,6.37 1.54,8.94 1.03,2.57 2.43,4.73 4.2,6.48 1.78,1.75 3.82,3.06 6.14,3.94 2.33,0.87 4.78,1.32 7.37,1.32 2.59,0 5.05,-0.45 7.37,-1.32 2.32,-0.88 4.35,-2.19 6.08,-3.94 1.73,-1.75 3.12,-3.91 4.14,-6.48 1.03,-2.57 1.55,-5.55 1.55,-8.94"
       style="fill:#203a72;fill-opacity:1;fill-rule:nonzero;stroke:none;stroke-width:0.1"
       id="path242" />
    <path
       d="m 3129.56,703.65 c -2.86,6.16 -5.61,12.62 -8.26,19.36 -2.64,6.75 -5.11,13.48 -7.4,20.22 h 7.95 c 0.91,-2.66 1.85,-5.39 2.8,-8.17 0.95,-2.77 1.91,-5.51 2.86,-8.19 0.96,-2.69 1.91,-5.28 2.87,-7.8 0.95,-2.51 1.89,-4.82 2.8,-6.91 0.88,2.09 1.8,4.38 2.75,6.89 0.96,2.49 1.92,5.08 2.89,7.79 0.98,2.71 1.94,5.45 2.89,8.22 0.96,2.78 1.88,5.51 2.75,8.17 h 7.72 c -2.33,-6.74 -4.82,-13.47 -7.45,-20.22 -2.64,-6.74 -5.39,-13.2 -8.26,-19.36 h -6.91"
       style="fill:#203a72;fill-opacity:1;fill-rule:nonzero;stroke:none;stroke-width:0.1"
       id="path244" />
    <path
       d="m 3157.26,703.65 v 39.58 h 25.41 v -6.11 h -18.22 v -9.77 h 16.22 v -6 h -16.22 v -11.59 h 19.59 v -6.11 h -26.78"
       style="fill:#203a72;fill-opacity:1;fill-rule:nonzero;stroke:none;stroke-width:0.1"
       id="path246" />
    <path
       d="m 3282.74,1023.55 -48.93,35.31 v 46.29 c 0,4.06 -3.29,7.35 -7.35,7.35 h -22.64 c -4.07,0 -7.36,-3.29 -7.36,-7.35 v -19.33 l -52.06,37.58 c -5.32,3.84 -12.51,3.84 -17.84,0 l -138.34,-99.85 c -8,-5.78 -8.49,-17.51 -1,-23.93 5.34,-4.58 13.13,-4.91 18.83,-0.79 l 129.43,93.42 129.42,-93.42 c 5.71,-4.12 13.5,-3.79 18.84,0.79 7.49,6.42 7,18.15 -1,23.93"
       style="fill:#203a72;fill-opacity:1;fill-rule:nonzero;stroke:none;stroke-width:0.1"
       id="path456" />
    <path
       d="M 3245.83,989.54 V 883.48 c 0,-10.84 -8.87,-19.71 -19.71,-19.71 h -115.67 l 1.6,1.6 c 14.29,14.29 20.94,34.74 17.99,54.57 -3.08,20.33 -15.4,37.57 -34,47.43 -8.62,4.56 -18.35,6.9 -28.21,6.9 -15.4,0 -30.55,-5.67 -42.5,-15.77 l -0.12,0.12 v 30.92 l 110.37,79.7 110.25,-79.7"
       style="fill:#203a72;fill-opacity:1;fill-rule:nonzero;stroke:none;stroke-width:0.1"
       id="path458" />
    <path
       d="m 3087.09,950.46 c -17.25,9.14 -38.66,4.53 -52.46,-9.28 l -9.41,-9.43 -10.27,10.28 c -20.65,20.63 -56.5,16.83 -71.52,-11.47 -9.15,-17.25 -4.54,-38.67 9.27,-52.47 l 63.77,-63.77 c 4.83,-4.83 12.66,-4.83 17.49,0 l 64.62,64.61 c 20.66,20.66 16.82,56.51 -11.49,71.53"
       style="fill:#14a0de;fill-opacity:1;fill-rule:nonzero;stroke:none;stroke-width:0.1"
       id="path460" />
  </g>
</svg>
