<?xml version="1.0" encoding="UTF-8" standalone="no"?>
<!-- Created with Inkscape (http://www.inkscape.org/) -->

<svg
   version="1.1"
   id="svg48"
   width="467.17163"
   height="420.77673"
   viewBox="0 0 467.17163 420.77673"
   sodipodi:docname="iStock-2160960991.eps"
   xmlns:inkscape="http://www.inkscape.org/namespaces/inkscape"
   xmlns:sodipodi="http://sodipodi.sourceforge.net/DTD/sodipodi-0.dtd"
   xmlns="http://www.w3.org/2000/svg"
   xmlns:svg="http://www.w3.org/2000/svg">
  <defs
     id="defs52" />
  <sodipodi:namedview
     id="namedview50"
     pagecolor="#ffffff"
     bordercolor="#000000"
     borderopacity="0.25"
     inkscape:showpageshadow="2"
     inkscape:pageopacity="0.0"
     inkscape:pagecheckerboard="0"
     inkscape:deskcolor="#d1d1d1"
     showgrid="false" />
  <g
     id="g56"
     inkscape:groupmode="layer"
     inkscape:label="Page 1"
     transform="matrix(1.3333333,0,0,-1.3333333,-3918.2444,1501.7067)">
    <path
       d="m 3282.74,1023.55 -48.93,35.31 v 46.29 c 0,4.06 -3.29,7.35 -7.35,7.35 h -22.64 c -4.07,0 -7.36,-3.29 -7.36,-7.35 v -19.33 l -52.06,37.58 c -5.32,3.84 -12.51,3.84 -17.84,0 l -138.34,-99.85 c -8,-5.78 -8.49,-17.51 -1,-23.93 5.34,-4.58 13.13,-4.91 18.83,-0.79 l 129.43,93.42 129.42,-93.42 c 5.71,-4.12 13.5,-3.79 18.84,0.79 7.49,6.42 7,18.15 -1,23.93"
       style="fill:#203a72;fill-opacity:1;fill-rule:nonzero;stroke:none;stroke-width:0.1"
       id="path456" />
    <path
       d="M 3245.83,989.54 V 883.48 c 0,-10.84 -8.87,-19.71 -19.71,-19.71 h -115.67 l 1.6,1.6 c 14.29,14.29 20.94,34.74 17.99,54.57 -3.08,20.33 -15.4,37.57 -34,47.43 -8.62,4.56 -18.35,6.9 -28.21,6.9 -15.4,0 -30.55,-5.67 -42.5,-15.77 l -0.12,0.12 v 30.92 l 110.37,79.7 110.25,-79.7"
       style="fill:#203a72;fill-opacity:1;fill-rule:nonzero;stroke:none;stroke-width:0.1"
       id="path458" />
    <path
       d="m 3087.09,950.46 c -17.25,9.14 -38.66,4.53 -52.46,-9.28 l -9.41,-9.43 -10.27,10.28 c -20.65,20.63 -56.5,16.83 -71.52,-11.47 -9.15,-17.25 -4.54,-38.67 9.27,-52.47 l 63.77,-63.77 c 4.83,-4.83 12.66,-4.83 17.49,0 l 64.62,64.61 c 20.66,20.66 16.82,56.51 -11.49,71.53"
       style="fill:#14a0de;fill-opacity:1;fill-rule:nonzero;stroke:none;stroke-width:0.1"
       id="path460" />
  </g>
</svg>
